<svg xmlns="http://www.w3.org/2000/svg" viewBox="0 0 35 35" shape-rendering="crispEdges"><g transform="translate(0 10.5)"><rect x="7" y="0" width="4" height="1" fill="#f7f2e6"/><rect x="17" y="0" width="1" height="1" fill="#f7f2e6"/><rect x="23" y="0" width="1" height="1" fill="#f7f2e6"/><rect x="29" y="0" width="1" height="1" fill="#f7f2e6"/><rect x="7" y="1" width="4" height="1" fill="#f7f2e6"/><rect x="15" y="1" width="5" height="1" fill="#f7f2e6"/><rect x="21" y="1" width="5" height="1" fill="#f7f2e6"/><rect x="27" y="1" width="5" height="1" fill="#f7f2e6"/><rect x="6" y="2" width="6" height="1" fill="#f7f2e6"/><rect x="14" y="2" width="19" height="1" fill="#f7f2e6"/><rect x="5" y="3" width="2" height="1" fill="#2b2a30"/><rect x="7" y="3" width="4" height="1" fill="#f7f2e6"/><rect x="11" y="3" width="2" height="1" fill="#2b2a30"/><rect x="14" y="3" width="19" height="1" fill="#f7f2e6"/><rect x="5" y="4" width="3" height="1" fill="#2b2a30"/><rect x="8" y="4" width="2" height="1" fill="#f7f2e6"/><rect x="10" y="4" width="3" height="1" fill="#2b2a30"/><rect x="13" y="4" width="12" height="1" fill="#f7f2e6"/><rect x="25" y="4" width="9" height="1" fill="#ede6d6"/><rect x="3" y="5" width="1" height="1" fill="#3a3a42"/><rect x="4" y="5" width="1" height="1" fill="#e8a0b4"/><rect x="5" y="5" width="9" height="1" fill="#2b2a30"/><rect x="14" y="5" width="1" height="1" fill="#e8a0b4"/><rect x="15" y="5" width="1" height="1" fill="#3a3a42"/><rect x="16" y="5" width="9" height="1" fill="#f7f2e6"/><rect x="25" y="5" width="10" height="1" fill="#ede6d6"/><rect x="3" y="6" width="2" height="1" fill="#3a3a42"/><rect x="5" y="6" width="2" height="1" fill="#2b2a30"/><rect x="7" y="6" width="1" height="1" fill="#ffffff"/><rect x="8" y="6" width="3" height="1" fill="#2b2a30"/><rect x="11" y="6" width="1" height="1" fill="#ffffff"/><rect x="12" y="6" width="2" height="1" fill="#2b2a30"/><rect x="14" y="6" width="2" height="1" fill="#3a3a42"/><rect x="16" y="6" width="19" height="1" fill="#ede6d6"/><rect x="5" y="7" width="8" height="1" fill="#2b2a30"/><rect x="13" y="7" width="22" height="1" fill="#ede6d6"/><rect x="5" y="8" width="8" height="1" fill="#2b2a30"/><rect x="13" y="8" width="21" height="1" fill="#ddd4bf"/><rect x="6" y="9" width="2" height="1" fill="#2b2a30"/><rect x="8" y="9" width="2" height="1" fill="#e88aa6"/><rect x="10" y="9" width="2" height="1" fill="#2b2a30"/><rect x="13" y="9" width="21" height="1" fill="#ddd4bf"/><rect x="15" y="10" width="1" height="1" fill="#c9bfa8"/><rect x="17" y="10" width="13" height="1" fill="#c9bfa8"/><rect x="31" y="10" width="1" height="1" fill="#c9bfa8"/><rect x="18" y="11" width="2" height="1" fill="#3a3a42"/><rect x="20" y="11" width="3" height="1" fill="#c9bfa8"/><rect x="23" y="11" width="2" height="1" fill="#3a3a42"/><rect x="25" y="11" width="2" height="1" fill="#c9bfa8"/><rect x="27" y="11" width="2" height="1" fill="#3a3a42"/><rect x="31" y="11" width="2" height="1" fill="#3a3a42"/><rect x="18" y="12" width="2" height="1" fill="#3a3a42"/><rect x="23" y="12" width="2" height="1" fill="#3a3a42"/><rect x="27" y="12" width="2" height="1" fill="#3a3a42"/><rect x="31" y="12" width="2" height="1" fill="#3a3a42"/><rect x="0" y="13" width="3" height="1" fill="#3d8a3d"/><rect x="3" y="13" width="1" height="1" fill="#5aa64f"/><rect x="4" y="13" width="5" height="1" fill="#3d8a3d"/><rect x="9" y="13" width="1" height="1" fill="#5aa64f"/><rect x="10" y="13" width="9" height="1" fill="#3d8a3d"/><rect x="19" y="13" width="1" height="1" fill="#5aa64f"/><rect x="20" y="13" width="7" height="1" fill="#3d8a3d"/><rect x="27" y="13" width="1" height="1" fill="#5aa64f"/><rect x="28" y="13" width="5" height="1" fill="#3d8a3d"/><rect x="33" y="13" width="1" height="1" fill="#5aa64f"/><rect x="34" y="13" width="1" height="1" fill="#3d8a3d"/></g></svg>
